<svg width="317" height="170" viewBox="0 0 317 170" fill="none" xmlns="http://www.w3.org/2000/svg">
<g clip-path="url(#clip0_4_157)">
<path d="M263.523 54.1503C263.217 54.4906 262.916 54.8309 262.618 55.1756L262.614 55.1799C258.519 59.8686 254.806 64.8775 251.512 70.1587C251.253 70.5679 250.999 70.9815 250.749 71.395C242.977 84.1743 237.643 98.2829 235.018 113.006C235.013 113.031 235.009 113.053 235.005 113.079C234.419 116.383 233.976 119.709 233.677 123.056C233.44 125.654 233.294 128.259 233.238 130.871C232.996 141.804 233.871 153.987 226.756 162.293C224.084 165.412 220.528 167.592 216.64 168.966C215.469 169.379 214.275 169.721 213.063 169.991H194.048C193.789 169.957 193.531 169.918 193.268 169.879C191.669 169.642 190.074 169.38 188.48 169.117L188.389 169.104L188.161 169.177L186.773 169.63C186.773 169.586 186.769 169.543 186.769 169.5C186.764 169.423 186.76 169.341 186.76 169.263C186.756 169.164 186.751 169.065 186.747 168.966C186.743 168.867 186.738 168.772 186.738 168.673C186.73 168.509 186.721 168.341 186.721 168.173C185.799 142.576 188.419 116.094 200.685 93.6371C204.846 86.038 210.176 79.14 216.481 73.1958C229.023 61.3876 245.202 53.7195 262.213 54.1072C262.648 54.1158 263.084 54.1287 263.523 54.1503Z" fill="#F0F0F0"/>
<path d="M263.572 54.6941C244.485 64.2879 228.341 80.0389 218.592 99.0767C216.485 103.193 214.705 107.551 213.975 112.14C213.245 116.73 213.886 121.077 215.525 125.397C217.023 129.346 219.013 133.212 219.525 137.457C220.065 141.931 218.488 146.15 215.575 149.527C212.012 153.659 207.176 156.265 202.358 158.649C197.009 161.296 191.41 163.961 187.673 168.794C187.22 169.379 186.337 168.643 186.789 168.058C193.292 159.65 204.643 157.895 212.416 151.078C216.044 147.897 218.734 143.605 218.474 138.634C218.246 134.287 216.197 130.298 214.645 126.313C213.016 122.128 212.167 117.906 212.647 113.406C213.139 108.803 214.752 104.366 216.745 100.214C221.335 90.833 227.371 82.2318 234.634 74.7253C242.876 66.1124 252.531 58.972 263.181 53.6133C263.84 53.2819 264.227 54.3649 263.572 54.6941Z" fill="white"/>
<path d="M221.435 92.7214C218.447 90.6158 216.305 87.5172 215.392 83.9789C214.478 80.4406 214.853 76.693 216.449 73.4054C216.774 72.7413 217.822 73.2152 217.496 73.8802C216.005 76.9389 215.656 80.4298 216.513 83.7229C217.37 87.0161 219.377 89.8945 222.171 91.8386C222.777 92.2618 222.038 93.1422 221.435 92.7214Z" fill="white"/>
<path d="M214.501 123.495C221.876 122.287 228.525 118.346 233.121 112.456C233.576 111.872 234.459 112.608 234.005 113.192C229.21 119.312 222.283 123.399 214.605 124.639C213.874 124.757 213.773 123.612 214.501 123.495Z" fill="white"/>
<path d="M243.468 67.5164C244.454 68.5719 245.687 69.366 247.057 69.8274C248.426 70.2888 249.888 70.4031 251.312 70.16C252.042 70.0331 252.142 71.1784 251.416 71.3045C249.842 71.5657 248.227 71.4376 246.713 70.9311C245.199 70.4247 243.832 69.5554 242.732 68.3991C242.619 68.2989 242.549 68.1594 242.535 68.0091C242.521 67.8587 242.566 67.7089 242.659 67.5899C242.757 67.4735 242.897 67.4005 243.048 67.3867C243.2 67.373 243.351 67.4196 243.468 67.5164Z" fill="white"/>
<path d="M316.548 124.753C316.095 124.844 315.651 124.93 315.199 125.033C315.194 125.033 315.186 125.038 315.181 125.038C309.093 126.309 303.117 128.071 297.313 130.306L297.308 130.311C296.856 130.474 296.399 130.651 295.955 130.828H295.951C282.058 136.357 269.308 144.409 258.347 154.577C258.326 154.599 258.304 154.616 258.283 154.638C258.278 154.646 258.27 154.651 258.265 154.655C258.252 154.668 258.235 154.681 258.222 154.694C253.876 158.749 249.842 163.127 246.155 167.79C245.849 168.178 245.543 168.57 245.237 168.966C244.969 169.306 244.706 169.647 244.439 169.991H186.256C186.351 169.853 186.458 169.711 186.553 169.573C186.553 169.569 186.557 169.569 186.557 169.565C186.626 169.466 186.695 169.371 186.751 169.276C186.756 169.272 186.76 169.268 186.76 169.263C186.782 169.237 186.803 169.207 186.82 169.19C186.868 169.108 186.924 169.039 186.967 168.966C186.977 168.956 186.986 168.944 186.993 168.932C188.023 167.484 189.057 166.037 190.117 164.598V164.593C190.124 164.587 190.13 164.58 190.135 164.572C190.139 164.563 190.139 164.563 190.148 164.559C198.246 153.539 207.331 143.101 217.718 134.373C218.028 134.11 218.343 133.839 218.675 133.585C223.377 129.676 228.39 126.158 233.665 123.065C233.669 123.06 233.673 123.06 233.677 123.056C236.561 121.385 239.53 119.852 242.586 118.459C250.473 114.903 258.871 112.607 267.471 111.657C267.501 111.653 267.527 111.653 267.557 111.649C267.579 111.644 267.6 111.644 267.622 111.64C284.719 109.788 302.217 113.411 315.535 123.935C315.875 124.206 316.207 124.473 316.548 124.753Z" fill="#F0F0F0"/>
<path d="M197.181 168.966C199.328 169.207 201.474 169.595 203.624 169.991H195.781C194.945 169.922 194.108 169.879 193.268 169.879C192.372 169.865 191.475 169.902 190.583 169.991H186.256C186.256 169.996 186.251 169.996 186.251 170V169.991C186.262 169.902 186.296 169.817 186.349 169.744C186.401 169.671 186.472 169.612 186.553 169.573C186.59 169.553 186.629 169.537 186.669 169.526C186.704 169.517 186.734 169.509 186.769 169.5C187.234 169.375 187.695 169.268 188.161 169.177C188.268 169.156 188.372 169.134 188.48 169.117C188.79 169.057 189.1 169.009 189.406 168.966C191.988 168.637 194.6 168.637 197.181 168.966Z" fill="white"/>
<path d="M316.259 125.219C315.906 125.154 315.552 125.094 315.199 125.033C307.715 123.759 300.114 123.317 292.533 123.715C292.149 123.732 291.766 123.754 291.382 123.78C280.863 124.423 270.507 126.691 260.683 130.505C260.681 130.507 260.678 130.509 260.674 130.509C260.567 130.545 260.462 130.587 260.36 130.634H260.355C258.071 131.53 255.823 132.514 253.61 133.585C249.452 135.605 245.404 138.013 242.056 141.24C239.307 143.904 237.219 147.173 235.957 150.786C235.824 151.144 235.699 151.51 235.578 151.876C235.488 152.169 235.397 152.462 235.311 152.755C234.126 156.809 233.389 161.095 231.238 164.792C230.302 166.405 229.062 167.823 227.587 168.966C227.109 169.336 226.609 169.678 226.092 169.991H223.536C224.24 169.7 224.921 169.357 225.575 168.966C227.215 167.995 228.621 166.674 229.691 165.098C232.126 161.492 232.893 157.072 234.057 152.958C234.255 152.26 234.466 151.579 234.703 150.907C235.847 147.396 237.733 144.171 240.233 141.451C243.4 138.069 247.361 135.498 251.451 133.382C254.08 132.025 256.787 130.798 259.55 129.699C259.907 129.557 260.265 129.415 260.627 129.277C278.125 122.633 297.083 120.788 315.535 123.935C315.893 123.991 316.246 124.056 316.599 124.12C317.324 124.254 316.979 125.348 316.259 125.219Z" fill="white"/>
<path d="M259.71 130.222C258.592 126.743 258.749 122.98 260.151 119.605C261.553 116.231 264.109 113.464 267.364 111.799C268.024 111.465 268.575 112.474 267.914 112.809C264.881 114.353 262.499 116.931 261.2 120.076C259.901 123.221 259.769 126.727 260.829 129.961C261.059 130.664 259.938 130.921 259.71 130.222Z" fill="white"/>
<path d="M235.638 150.621C242.254 154.095 249.937 154.949 257.154 153.012C257.869 152.82 258.13 153.939 257.416 154.131C249.902 156.132 241.908 155.227 235.032 151.597C234.376 151.251 234.986 150.276 235.638 150.621Z" fill="white"/>
<path d="M292.484 123.357C292.636 124.794 293.142 126.17 293.957 127.362C294.773 128.555 295.871 129.526 297.155 130.189C297.814 130.527 297.204 131.501 296.549 131.165C295.134 130.426 293.922 129.352 293.018 128.037C292.114 126.721 291.547 125.205 291.365 123.619C291.335 123.471 291.363 123.318 291.443 123.189C291.522 123.061 291.648 122.968 291.793 122.929C291.942 122.895 292.098 122.921 292.227 123.001C292.356 123.081 292.449 123.209 292.484 123.357Z" fill="white"/>
<path d="M197.844 86.3154C197.62 86.3154 197.397 86.3034 197.174 86.2797L147.619 80.9906C147.225 80.9486 146.843 80.8295 146.495 80.6399C146.147 80.4504 145.84 80.1943 145.591 79.8861C145.343 79.5779 145.157 79.2237 145.045 78.8438C144.933 78.4639 144.897 78.0657 144.939 77.6719L145.638 71.1353L145.645 71.1362C145.781 70.3861 146.195 69.7151 146.806 69.258C147.416 68.8008 148.176 68.5912 148.935 68.6713L198.49 73.9603C200.067 74.1289 201.519 74.8949 202.547 76.101C203.576 77.307 204.103 78.8612 204.02 80.4439C203.938 82.0266 203.251 83.5174 202.102 84.6096C200.953 85.7018 199.429 86.3122 197.844 86.3154Z" fill="#00BFA6"/>
<path d="M203.972 169.431H197.611C196.811 169.43 196.044 169.112 195.478 168.547C194.913 167.982 194.595 167.215 194.594 166.416V113.422C194.595 112.622 194.913 111.855 195.478 111.29C196.044 110.725 196.811 110.407 197.611 110.406H203.972C204.772 110.407 205.539 110.725 206.104 111.29C206.67 111.855 206.988 112.622 206.989 113.422V166.416C206.988 167.215 206.67 167.982 206.104 168.547C205.539 169.112 204.772 169.43 203.972 169.431Z" fill="#00BFA6"/>
<path d="M188.804 169.431H182.443C181.643 169.43 180.876 169.112 180.311 168.547C179.745 167.982 179.427 167.215 179.426 166.416V113.422C179.427 112.622 179.745 111.855 180.311 111.29C180.876 110.725 181.643 110.407 182.443 110.406H188.804C189.604 110.407 190.371 110.725 190.937 111.29C191.502 111.855 191.821 112.622 191.821 113.422V166.416C191.821 167.215 191.502 167.982 190.937 168.547C190.371 169.112 189.604 169.43 188.804 169.431Z" fill="#00BFA6"/>
<path d="M199.04 55.3162C211.18 55.3162 221.02 45.4797 221.02 33.3456C221.02 21.2116 211.18 11.375 199.04 11.375C186.901 11.375 177.06 21.2116 177.06 33.3456C177.06 45.4797 186.901 55.3162 199.04 55.3162Z" fill="#00BFA6"/>
<path d="M186.956 42.5685C185.531 42.529 183.758 42.4796 182.392 41.4821C181.985 41.1729 181.651 40.7785 181.413 40.3266C181.175 39.8747 181.038 39.3761 181.013 38.8659C180.988 38.5034 181.048 38.14 181.187 37.8042C181.326 37.4684 181.541 37.1693 181.815 36.9303C182.528 36.3276 183.57 36.1863 184.693 36.5161L183.53 28.0184L184.384 27.9015L185.751 37.8916L185.038 37.5645C184.211 37.1855 183.076 36.9926 182.371 37.5883C182.198 37.744 182.063 37.9376 181.977 38.1539C181.891 38.3703 181.856 38.6035 181.874 38.8356C181.895 39.2154 181.998 39.5861 182.175 39.9227C182.352 40.2593 182.599 40.5538 182.901 40.7862C183.964 41.5624 185.377 41.6625 186.98 41.7073L186.956 42.5685Z" fill="#2F2E41"/>
<path d="M179.306 28.7513H174.664V29.6129H179.306V28.7513Z" fill="#2F2E41"/>
<path d="M193.96 28.7513H189.317V29.6129H193.96V28.7513Z" fill="#2F2E41"/>
<path d="M148.945 116.12H6.89189C5.15497 116.118 3.48975 115.428 2.26156 114.2C1.03338 112.972 0.342527 111.308 0.340576 109.572V40.3866C0.342525 38.6504 1.03338 36.986 2.26156 35.7583C3.48975 34.5307 5.15497 33.8401 6.89189 33.8382H148.945C150.682 33.8402 152.347 34.5307 153.575 35.7583C154.803 36.986 155.494 38.6504 155.496 40.3866V109.572C155.494 111.308 154.803 112.972 153.575 114.2C152.347 115.428 150.682 116.118 148.945 116.12Z" fill="#CACACA"/>
<path d="M134.279 77.9948H18.697C17.9476 77.9938 17.2167 77.7615 16.6043 77.3298C15.9918 76.8981 15.5275 76.288 15.2749 75.5827L2.19316 38.8975C1.99792 38.35 1.93704 37.7636 2.01563 37.1876C2.09423 36.6116 2.31 36.0629 2.64482 35.5876C2.97965 35.1123 3.42373 34.7243 3.93974 34.4562C4.45575 34.1881 5.02862 34.0477 5.61018 34.0469L150.09 33.8454H150.095C150.696 33.8454 151.288 33.9945 151.817 34.2794C152.346 34.5643 152.797 34.976 153.128 35.4777C153.459 35.9794 153.66 36.5553 153.713 37.1539C153.767 37.7524 153.671 38.3549 153.434 38.9072L137.618 75.7939C137.339 76.4475 136.873 77.0045 136.279 77.3958C135.686 77.7871 134.99 77.9954 134.279 77.9948Z" fill="#E4E4E4"/>
<path d="M51.4642 106.353H11.6083C10.6262 106.353 9.68442 105.963 8.99002 105.269C8.29562 104.575 7.90552 103.634 7.90552 102.652C7.90552 101.67 8.29562 100.729 8.99002 100.035C9.68442 99.3409 10.6262 98.9509 11.6083 98.9509H51.4642C52.4463 98.9509 53.3881 99.3409 54.0825 100.035C54.7769 100.729 55.167 101.67 55.167 102.652C55.167 103.634 54.7769 104.575 54.0825 105.269C53.3881 105.963 52.4463 106.353 51.4642 106.353Z" fill="#F2F2F2"/>
<path d="M209.483 128.613H176.932C175.362 128.612 173.858 127.988 172.748 126.878C171.638 125.769 171.013 124.265 171.012 122.696V105.566C171.025 93.8588 175.683 82.6351 183.965 74.357C192.247 66.0788 203.476 61.4224 215.188 61.4092H215.403V122.696C215.402 124.265 214.777 125.769 213.668 126.878C212.558 127.988 211.053 128.612 209.483 128.613Z" fill="#2F2E41"/>
<path d="M154.769 107.762C154.187 107.761 153.618 107.593 153.129 107.276C152.641 106.96 152.254 106.51 152.015 105.979L149.412 100.178C149.085 99.4481 149.061 98.6186 149.346 97.8714C149.631 97.1243 150.2 96.5204 150.929 96.1924L196.401 75.8028C197.143 75.4691 197.945 75.285 198.758 75.261C199.572 75.237 200.383 75.3735 201.144 75.6628C201.905 75.952 202.602 76.3883 203.194 76.9468C203.786 77.5053 204.263 78.1749 204.596 78.9175C204.929 79.66 205.113 80.461 205.136 81.2745C205.16 82.088 205.023 82.8982 204.733 83.6587C204.443 84.4192 204.006 85.1152 203.447 85.7068C202.887 86.2985 202.217 86.7742 201.474 87.1068L156.003 107.496C155.615 107.672 155.195 107.762 154.769 107.762Z" fill="#00BFA6"/>
<path d="M199.999 30.7196C200.361 29.9603 200.505 29.1157 200.416 28.2795C200.327 27.4433 200.009 26.648 199.495 25.9816C198.966 25.2384 198.289 24.6123 197.507 24.1423C196.725 23.6723 195.854 23.3684 194.949 23.2496C190.599 22.6236 186.379 25.2906 182.058 24.2969C178.105 23.3878 176.835 18.9976 178.284 15.5384C179.78 11.9671 183.375 9.45188 186.955 8.27646C191.035 6.91441 195.479 7.13851 199.402 8.90413C199.867 9.12015 200.553 8.75535 200.352 8.17436C199.755 6.45531 200.507 4.63156 201.797 3.43799C203.233 2.10875 205.296 1.6109 207.191 1.41684C210.784 1.07273 214.41 1.46859 217.845 2.57999C224.796 4.78945 230.817 9.72063 234.04 16.2951C235.691 19.7226 236.623 23.452 236.777 27.2533C236.931 31.0545 236.304 34.847 234.936 38.3969C232.003 45.8924 224.126 52.3003 225.749 61.0948C226.095 62.8231 226.864 64.4389 227.987 65.7978C229.109 67.1567 230.552 68.2164 232.184 68.8821C233.853 69.5355 235.66 69.7521 237.436 69.5114C239.211 69.2708 240.896 68.5808 242.329 67.5069C243.046 66.9762 243.69 66.3549 244.247 65.6586C244.759 65.0135 243.85 64.093 243.333 64.7447C242.233 66.1776 240.736 67.2547 239.027 67.8414C237.318 68.4281 235.475 68.4982 233.726 68.0432C231.978 67.5881 230.403 66.6279 229.197 65.2828C227.992 63.9376 227.21 62.2672 226.95 60.4803C226.297 56.2446 228.338 52.114 230.513 48.6301C232.748 45.0503 235.219 41.6546 236.592 37.6207C237.805 33.9845 238.289 30.1448 238.017 26.3214C237.744 22.4979 236.721 18.7657 235.004 15.338C231.647 8.71427 225.515 3.75262 218.499 1.4342C215.03 0.275182 211.366 -0.185987 207.719 0.0772925C204.065 0.36145 199.697 1.83379 198.937 5.94983C198.768 6.80581 198.826 7.69116 199.105 8.51791L200.055 7.78814C192.903 4.46317 183.384 6.17892 178.508 12.6178C176.183 15.6892 175.466 20.0972 178.007 23.2817C180.798 26.7804 185.65 25.7865 189.425 24.9814C191.802 24.4746 194.67 23.8955 196.878 25.2521C198.421 26.2 199.803 28.2516 198.883 30.0672C198.508 30.8075 199.623 31.4625 199.999 30.7196Z" fill="#2F2E41"/>
<path d="M280.004 169.479C280.004 169.546 279.991 169.613 279.966 169.675C279.94 169.737 279.902 169.794 279.855 169.842C279.807 169.889 279.75 169.927 279.688 169.953C279.626 169.978 279.559 169.992 279.491 169.991H0.512877C0.376854 169.991 0.2464 169.937 0.150217 169.841C0.0540342 169.745 0 169.615 0 169.479C0 169.343 0.0540342 169.212 0.150217 169.116C0.2464 169.02 0.376854 168.966 0.512877 168.966H279.491C279.559 168.966 279.626 168.979 279.688 169.005C279.75 169.03 279.807 169.068 279.855 169.116C279.902 169.163 279.94 169.22 279.966 169.282C279.991 169.345 280.004 169.411 280.004 169.479Z" fill="#3F3D56"/>
<path d="M77.7028 87.0415C82.7014 87.0415 86.7536 82.9912 86.7536 77.9948C86.7536 72.9985 82.7014 68.9481 77.7028 68.9481C72.7043 68.9481 68.6521 72.9985 68.6521 77.9948C68.6521 82.9912 72.7043 87.0415 77.7028 87.0415Z" fill="#3F3D56"/>
</g>
<defs>
<clipPath id="clip0_4_157">
<rect width="317" height="170" fill="white"/>
</clipPath>
</defs>
</svg>
